<?xml version="1.0" encoding="UTF-8" standalone="no"?>
<svg
   xmlns:dc="http://purl.org/dc/elements/1.1/"
   xmlns:cc="http://creativecommons.org/ns#"
   xmlns:rdf="http://www.w3.org/1999/02/22-rdf-syntax-ns#"
   xmlns:svg="http://www.w3.org/2000/svg"
   xmlns="http://www.w3.org/2000/svg"
   viewBox="0 0 50 51"
   height="51"
   width="50"
   version="1.1"
   id="svg4136">
  <metadata
     id="metadata4142">
    <rdf:RDF>
      <cc:Work
         rdf:about="">
        <dc:format>image/svg+xml</dc:format>
        <dc:type
           rdf:resource="http://purl.org/dc/dcmitype/StillImage" />
        <dc:title></dc:title>
      </cc:Work>
    </rdf:RDF>
  </metadata>
  <defs
     id="defs4140" />
  <g
     style="opacity:0.98999999;fill:#00adf0;fill-opacity:1"
     transform="matrix(5.4346561,0,0,5.7624937,-49.99227,-28.967535)"
     id="g4146">
    <path
       id="path4154"
       d="M 12.669371,13.71241 C 10.633888,13.226887 9.2499763,11.578357 9.2082572,9.5894948 9.1556656,7.0823111 11.000894,5.2353149 13.629498,5.1640187 c 4.135938,-0.11218 6.372613,4.4950819 3.534451,7.2805143 -1.192528,1.170373 -2.892696,1.649973 -4.494578,1.267877 z m 1.915984,-3.005936 c 0.730215,-0.276699 1.447789,-0.944203 1.439506,-1.3390623 -0.0087,-0.4171128 -0.792379,-1.0637984 -1.58492,-1.3079461 -0.853255,-0.2628512 -1.873959,0.077185 -2.529907,0.8428115 -0.479112,0.5592214 -0.483418,0.5917247 -0.135571,1.023232 0.335782,0.4165409 1.475476,0.9759739 2.012733,0.9879749 0.130808,0.0029 0.48998,-0.09023 0.798159,-0.20701 z M 13.071848,10.14171 c -0.316369,-0.2868593 -0.334251,-1.1393481 -0.03016,-1.4377893 0.304091,-0.2984412 1.207788,-0.31531 1.524156,-0.028451 0.316368,0.2868595 0.334251,1.1393482 0.03016,1.4377903 -0.129742,0.127331 -0.470534,0.235891 -0.757316,0.241244 -0.286782,0.0054 -0.63186,-0.0904 -0.76684,-0.212794 z m 1.141207,-0.5313486 c 0.293366,-0.5426376 -0.299743,-0.9564623 -0.744807,-0.5196673 -0.261713,0.2568509 -0.271009,0.3618686 -0.0531,0.5998184 0.348826,0.3808995 0.56012,0.3596745 0.797903,-0.080151 z"
       style="fill:#00adf0;fill-opacity:1" />
    <path
       id="path4152"
       d="M 11.99752,13.442407 C 10.95665,13.018471 9.7415308,11.794013 9.4503311,10.875643 8.8644122,9.0278022 9.510666,7.1175845 11.104225,5.9870098 c 0.732797,-0.519894 1.063915,-0.6206934 2.310754,-0.7034449 1.164945,-0.077316 1.613412,-0.023638 2.247239,0.2689765 1.671388,0.7716181 2.624378,2.1641239 2.646371,3.8668696 0.02337,1.80898 -1.004816,3.32875 -2.742869,4.054274 -0.897896,0.374813 -2.607948,0.359823 -3.5682,-0.03128 z M 15.609584,10.058154 16.318997,9.3619212 15.552065,8.6665238 C 14.881869,8.05884 14.665399,7.9733613 13.835877,7.9888455 c -0.968648,0.018081 -1.76078,0.4235486 -2.215291,1.1339377 -0.288355,0.4506915 0.03319,0.9855278 0.881608,1.4664248 0.992421,0.562519 2.204114,0.35544 3.10739,-0.531054 z m -2.464721,0.0119 c -0.459144,-0.4163177 -0.420075,-1.1548101 0.07495,-1.4167415 1.027704,-0.5437863 2.060679,0.4985141 1.305699,1.3174854 -0.41996,0.4555541 -0.945992,0.4933711 -1.380649,0.099256 z m 1.060436,-0.3608023 c 0.302735,-0.3582964 0.04823,-0.8765443 -0.426109,-0.86769 -0.430805,0.00804 -0.668585,0.4313071 -0.483509,0.8606814 0.151736,0.3520269 0.615087,0.3555969 0.909618,0.00701 z"
       style="fill:#00adf0;fill-opacity:1" />
    <path
       id="path4150"
       d="M 12.097177,13.411155 C 10.263288,12.643942 9.3647573,11.403725 9.3266506,9.5870719 9.2754661,7.1469672 11.153436,5.2946923 13.727286,5.2466477 c 1.819577,-0.033965 3.474807,0.9710329 4.221509,2.5631525 0.495268,1.0560114 0.322571,2.9455008 -0.361254,3.9525108 -1.151924,1.696337 -3.61134,2.434939 -5.490364,1.648844 z m 3.086569,-2.883081 c 0.347197,-0.208705 0.726782,-0.5561344 0.843521,-0.7720661 0.613985,-1.135683 -1.867364,-2.3592807 -3.301759,-1.6281572 -0.701623,0.3576237 -1.320295,0.9885921 -1.312944,1.3390407 0.0038,0.1791847 0.331378,0.5840516 0.728043,0.8997046 0.870591,0.692787 2.05473,0.755621 3.043139,0.161478 z M 13.275493,10.0704 C 13.026951,9.9130002 12.820405,9.6319756 12.816502,9.4459012 c -0.0078,-0.370911 0.575753,-0.9756326 0.948157,-0.982584 0.286739,-0.00535 1.051435,0.6650219 1.056921,0.9265554 0.0047,0.222875 -0.71252,0.9595844 -0.938269,0.9637984 -0.08576,0.0016 -0.359277,-0.125871 -0.607818,-0.283271 z m 1.04472,-0.6711686 c -0.0073,-0.3467207 -0.130937,-0.4868696 -0.463318,-0.5250819 -0.271958,-0.031266 -0.499259,0.067648 -0.568,0.2471737 -0.189381,0.4945944 0.099,0.8950758 0.590382,0.8198692 0.330519,-0.050586 0.448209,-0.1952404 0.440936,-0.541961 z"
       style="fill:#00adf0;fill-opacity:1" />
    <path
       id="path4148"
       d="m 13.747609,13.587781 c 0.517857,-0.07813 1.009957,-0.209175 1.093554,-0.29122 0.215081,-0.211084 -1.991674,-0.04626 -2.291393,0.171146 -0.159167,0.115454 -0.248607,0.103659 -0.251477,-0.03317 -0.0024,-0.116791 -0.134497,-0.20992 -0.293439,-0.206953 -0.390111,0.0073 -0.582845,-0.308584 -0.295201,-0.483797 0.151881,-0.09251 0.179688,-0.05789 0.08057,0.100323 -0.112595,0.179715 -0.03649,0.20483 0.29712,0.09805 0.282773,-0.09051 0.403837,-0.07228 0.327646,0.04933 -0.07854,0.125351 0.334121,0.152619 1.178672,0.07789 0.973459,-0.08614 1.374601,-0.04691 1.598778,0.156356 0.262674,0.238174 0.224032,0.287009 -0.316049,0.399431 -0.338421,0.07045 -0.942691,0.122813 -1.342823,0.116375 -0.668329,-0.01075 -0.650916,-0.02326 0.214046,-0.153756 z m 1.754979,-0.425483 c -0.260368,-0.151925 -0.253646,-0.179147 0.04623,-0.187221 0.192993,-0.0052 0.352682,0.07568 0.354865,0.179734 0.0048,0.23073 -0.01778,0.231152 -0.401094,0.0075 z m 0.723469,-0.29676 c 0.06035,-0.15761 0.240766,-0.289009 0.400926,-0.291999 0.169046,-0.0032 0.229251,-0.09594 0.143522,-0.221177 -0.0915,-0.133668 -0.05852,-0.166034 0.08669,-0.08508 0.320085,0.178457 0.306515,0.209125 -0.251955,0.569409 -0.416402,0.268633 -0.472634,0.272911 -0.379181,0.02885 z m -1.887822,-0.21603 c -0.144846,-0.08301 0.198131,-0.158915 0.798793,-0.176776 0.717186,-0.02133 0.925823,0.01933 0.65471,0.127589 -0.523681,0.209108 -1.138183,0.229902 -1.453503,0.04919 z M 10.43138,12.35799 c -0.5602634,-0.591336 -0.6250117,-0.898217 -0.07496,-0.355278 0.29656,0.292726 0.593987,0.478461 0.660948,0.412744 0.06696,-0.06572 -0.0852,-0.319215 -0.338132,-0.56333 -0.320515,-0.309341 -0.390101,-0.486348 -0.229625,-0.584099 0.165804,-0.100996 0.16802,-0.196681 0.0079,-0.34185 -0.122284,-0.110879 -0.221439,-0.461369 -0.220343,-0.778868 0.0017,-0.4816585 0.02959,-0.5150935 0.168627,-0.2018675 0.09165,0.2064715 0.126578,0.4826085 0.07762,0.6136365 -0.04896,0.131028 0.01089,0.236367 0.132987,0.234088 0.122101,-0.0023 0.226467,0.208687 0.231924,0.468813 0.0064,0.303322 0.122663,0.470853 0.324255,0.46709 0.232673,-0.0043 0.276598,-0.115791 0.169078,-0.428984 -0.07989,-0.232714 -0.227056,-0.502497 -0.327034,-0.599518 -0.09998,-0.09702 -0.180781,-0.265843 -0.179565,-0.375162 0.0012,-0.109318 0.13201,-0.04361 0.290653,0.146006 0.2819,0.336949 0.714917,0.2746 0.707021,-0.101802 -0.0022,-0.10405 -0.07084,-0.149264 -0.152577,-0.100475 -0.08173,0.04879 -0.240899,-0.0071 -0.353699,-0.124171 -0.241287,-0.2504499 -0.313444,-1.2659174 -0.08073,-1.1361749 0.08749,0.048779 0.156185,-0.049059 0.152654,-0.2174159 -0.0035,-0.1683574 0.08493,-0.2551742 0.196578,-0.1929263 0.11165,0.062248 0.201406,0.03721 0.199458,-0.055639 C 11.786885,8.1830559 11.5016,8.139883 11.156655,8.4462904 10.786974,8.7746706 10.630324,8.5604777 10.985345,8.2120526 11.116859,8.0829818 10.956025,8.0169609 10.501138,8.0132905 9.9914237,8.0091786 9.7696814,8.1110411 9.6200392,8.4180476 9.4921546,8.680416 9.4141408,8.7260786 9.4036176,8.5447223 9.3674925,7.9221474 9.7033941,7.72568 10.660772,7.8094179 c 0.874116,0.076456 0.923566,0.056881 0.806966,-0.3194435 -0.109871,-0.3546081 -0.09789,-0.3629719 0.103742,-0.072447 0.125374,0.1806439 0.17771,0.4086381 0.116301,0.5066536 -0.06141,0.098016 0.03058,0.2498479 0.204414,0.3374046 0.27669,0.1393612 0.266066,0.2036083 -0.08528,0.5156983 -0.539392,0.4791312 -0.493811,1.0178373 0.123314,1.4574001 0.618861,0.440798 0.662631,0.715646 0.0994,0.624187 -0.367741,-0.05972 -0.399843,-0.0016 -0.273365,0.49452 0.106032,0.41595 0.07334,0.549773 -0.125674,0.51448 -0.164626,-0.02919 -0.25934,0.117325 -0.24413,0.377662 0.03036,0.519546 -0.509197,0.583076 -0.955087,0.112457 z m 1.901757,0.164547 c 0.194119,-0.05161 0.464924,-0.05351 0.601787,-0.0042 0.136864,0.04929 -0.02196,0.09151 -0.352944,0.09383 -0.330983,0.0023 -0.442963,-0.03801 -0.248843,-0.08961 z m 4.649742,-0.523412 c -0.07035,-0.102778 -0.03234,-0.188653 0.08447,-0.190833 0.11681,-0.0022 0.214168,0.08117 0.21635,0.185218 0.0022,0.104051 -0.03583,0.189926 -0.08447,0.190834 -0.04864,9.08e-4 -0.145999,-0.08244 -0.216351,-0.185219 z m -0.292492,-0.706821 c -0.01555,-0.131236 0.04959,-0.387949 0.144756,-0.570473 0.09517,-0.182524 0.26872,-0.546562 0.38567,-0.8089728 0.1978,-0.4438182 0.209392,-0.4275265 0.166127,0.2334698 -0.02558,0.39082 0.03094,0.709136 0.125602,0.707369 0.09466,-0.0018 0.118123,0.08296 0.05214,0.188284 -0.06599,0.105323 -0.210223,0.193181 -0.320523,0.19524 -0.110301,0.0021 -0.146558,-0.08243 -0.08057,-0.187753 0.06599,-0.105323 0.03102,-0.189836 -0.0777,-0.187807 -0.108723,0.002 -0.235824,0.153442 -0.282447,0.336472 -0.04662,0.18303 -0.0975,0.225407 -0.113049,0.09417 z m 1.127564,-0.438362 c 0.04246,-0.316337 0.163282,-0.576764 0.268497,-0.578728 0.105215,-0.002 0.133969,0.189121 0.0639,0.424635 -0.203421,0.683723 -0.416757,0.782622 -0.332397,0.154093 z M 9.6628524,11.377487 C 9.6530387,11.324937 9.5547371,11.005758 9.4444045,10.6682 9.3198538,10.287142 9.3158152,10.094608 9.4337519,10.160361 c 0.1044737,0.05825 0.1952467,0.292401 0.2017178,0.520343 0.00849,0.299155 0.057462,0.343365 0.1760394,0.158933 0.1314743,-0.204491 0.1907049,-0.194187 0.2966509,0.05161 0.07281,0.168912 0.04988,0.261116 -0.05096,0.204898 -0.1008348,-0.05622 -0.226799,0.0056 -0.2799203,0.137338 -0.053121,0.131754 -0.1046137,0.196558 -0.1144273,0.144008 z m 5.4992556,-0.651523 c -0.06379,-0.09319 0.06557,-0.128257 0.287463,-0.07792 0.470698,0.106777 0.532588,0.234221 0.117506,0.241969 -0.158942,0.003 -0.341178,-0.07085 -0.404969,-0.164048 z m 0.596053,-0.363146 c -0.06178,-0.05602 -0.01855,-0.21283 0.09605,-0.348473 0.209421,-0.2478569 0.782369,-0.1775264 0.788122,0.09674 0.0038,0.182111 -0.730413,0.391151 -0.884176,0.25173 z M 13.000007,9.8497029 c -0.255749,-0.2953981 -0.248796,-0.3022219 0.07422,-0.07284 0.339245,0.2409061 0.448739,0.3942781 0.283682,0.3973591 -0.04164,7.77e-4 -0.2027,-0.145256 -0.357901,-0.3245188 z m 1.320206,-0.4504715 c -0.0083,-0.3963303 0.0534,-0.6824031 0.137134,-0.6357172 0.08374,0.046686 0.157396,0.3302318 0.163686,0.6301019 0.0063,0.2998701 -0.05542,0.5859428 -0.137134,0.6357169 -0.08171,0.04978 -0.155372,-0.2337714 -0.163686,-0.6301016 z m -3.694054,0.542097 c -0.0022,-0.1040505 0.08084,-0.3185142 0.184484,-0.4765859 0.103649,-0.1580716 0.190238,-0.2022708 0.192421,-0.09822 0.0022,0.1040505 -0.08084,0.3185142 -0.184484,0.4765859 -0.103649,0.1580716 -0.190238,0.2022706 -0.192421,0.09822 z M 9.302428,9.4813812 C 9.224704,9.2652937 9.213418,9.0371593 9.277349,8.9744162 c 0.063931,-0.062743 0.1193198,0.032833 0.1230863,0.2123911 0.00377,0.1795583 0.095991,0.2721706 0.2049424,0.2058048 0.1089518,-0.066366 0.19988,-0.035533 0.2020626,0.068518 0.00807,0.3849388 -0.3684086,0.4000359 -0.5050127,0.020251 z M 16.62584,9.3246506 c -0.0025,-0.1213921 0.05614,-0.1656122 0.130413,-0.098267 0.07427,0.067346 0.257502,-0.049629 0.407174,-0.259943 0.323673,-0.4548126 0.848475,-0.5149669 0.857216,-0.098256 0.0034,0.1622165 -0.08586,0.2436184 -0.19837,0.1808931 -0.112506,-0.062725 -0.342887,0.021715 -0.511958,0.1876439 -0.363504,0.3567507 -0.677988,0.3971499 -0.684475,0.087929 z M 9.9970138,8.9342395 C 9.9883108,8.5193411 10.067799,8.3389916 10.236402,8.3910972 10.509675,8.4755503 10.481318,9.0759 10.19006,9.3722354 10.079654,9.4845654 10.005005,9.315196 9.9970138,8.9342395 Z m 3.1080132,-0.080096 c 0.383529,-0.4160363 0.691589,-0.5053211 0.697946,-0.202285 0.0022,0.1040505 -0.131401,0.1917096 -0.296852,0.194798 -0.165452,0.00309 -0.299035,0.090748 -0.296852,0.1947981 0.0022,0.1040505 -0.100265,0.1911284 -0.227661,0.1935065 -0.131356,0.00245 -0.07793,-0.1624059 0.123419,-0.3808176 z M 15.715482,8.626982 c -0.07437,-0.1086555 -0.03433,-0.199439 0.08899,-0.2017409 0.12332,-0.0023 0.161642,-0.095602 0.08516,-0.2073342 -0.07648,-0.1117319 -0.321415,-0.1545076 -0.544298,-0.095057 -0.309219,0.082479 -0.350789,0.054652 -0.175439,-0.117441 0.175351,-0.1720928 0.322913,-0.1730654 0.622759,-0.0041 0.216126,0.1217856 0.539922,0.1650565 0.719547,0.096158 0.243238,-0.093299 0.31,-0.033384 0.261587,0.2347568 -0.07133,0.3951008 -0.842586,0.609912 -1.058308,0.2947631 z M 17.224775,8.0617249 C 17.073088,7.8066204 16.876186,7.6922493 16.733769,7.776524 c -0.142891,0.084556 -0.130616,0.010924 0.03076,-0.1845304 0.147689,-0.1788749 0.403894,-0.327754 0.569345,-0.3308424 0.235389,-0.00439 0.251249,0.053055 0.07291,0.2641199 -0.173767,0.2056593 -0.170757,0.2865277 0.01267,0.3404259 0.132317,0.03888 0.199622,0.1947187 0.149567,0.3463081 -0.06772,0.2050738 -0.155826,0.1666101 -0.34425,-0.1502803 z m 0.577229,-0.052284 c -0.122975,-0.2068188 -0.140153,-0.3758976 -0.03838,-0.3777973 0.101317,-0.00189 0.234984,0.1659449 0.297037,0.3729691 0.06205,0.2070243 0.07933,0.3770331 0.03838,0.3777973 -0.04094,7.643e-4 -0.17461,-0.1670718 -0.297038,-0.3729691 z M 12.286966,8.112387 c -0.07035,-0.102778 -0.03234,-0.1886532 0.08447,-0.1908336 0.116811,-0.00218 0.214169,0.081168 0.216351,0.1852184 0.0022,0.1040505 -0.03583,0.1899257 -0.08447,0.1908336 -0.04864,9.08e-4 -0.145999,-0.08244 -0.216351,-0.1852184 z M 10.624192,7.127531 c 0.197037,-0.1543772 0.326791,-0.4246066 0.288341,-0.6005097 -0.03845,-0.175903 0.110496,-0.4397616 0.330991,-0.5863523 0.351875,-0.2339358 0.43106,-0.2229158 0.647536,0.090116 0.211145,0.305323 0.191754,0.3537732 -0.134747,0.3366923 -0.209761,-0.010974 -0.331597,-0.099416 -0.270748,-0.1965396 0.06085,-0.097123 -0.01045,-0.1359834 -0.158453,-0.086356 -0.147999,0.049627 -0.267366,0.3381283 -0.26526,0.641113 0.0028,0.4021697 -0.104116,0.5686496 -0.39604,0.6167019 -0.382014,0.062881 -0.383872,0.053286 -0.04162,-0.2148653 z m 6.007059,-0.219902 c -0.04311,-0.4268911 0.422078,-0.543513 0.662917,-0.166193 0.08207,0.1285821 0.07468,0.1726267 -0.01643,0.097877 -0.09111,-0.07475 -0.264984,-0.00229 -0.386396,0.1610313 -0.191291,0.257317 -0.225998,0.2449451 -0.260095,-0.092715 z M 9.9593373,7.1380959 C 9.9585132,7.0988109 10.113319,6.9468814 10.30335,6.8004748 10.616492,6.5592184 10.623726,6.5657775 10.380565,6.8704884 10.125187,7.1905096 9.9626034,7.2937997 9.9593373,7.1380959 Z M 16.326729,6.2063103 c -0.184597,-0.042451 -0.388304,-0.1993833 -0.452681,-0.348739 -0.09517,-0.220804 -0.02328,-0.2160646 0.3847,0.025359 0.275963,0.1633033 0.502439,0.3296901 0.503279,0.3697486 8.4e-4,0.040058 -0.02124,0.063379 -0.04907,0.051824 -0.02783,-0.011555 -0.201631,-0.055742 -0.386229,-0.098193 z M 12.99941,6.0683256 c 0.193761,-0.046586 0.310877,-0.1452061 0.260257,-0.2191565 -0.05062,-0.073951 0.222849,-0.1057216 0.607707,-0.070603 0.879929,0.080295 0.813899,0.1358203 -0.319659,0.2688053 -0.495329,0.05811 -0.742066,0.067539 -0.548305,0.020954 z m 2.316035,-0.034323 c 0.143624,-0.057352 0.316736,-0.053859 0.384695,0.00776 0.06796,0.06162 -0.04955,0.108544 -0.261134,0.1042758 -0.233816,-0.00472 -0.282277,-0.048658 -0.123561,-0.1120362 z M 11.93429,5.6458767 c -0.0025,-0.1198053 0.170193,-0.1532685 0.424649,-0.082279 0.315468,0.088011 0.386208,0.057306 0.267504,-0.11611 -0.104878,-0.153216 -0.07932,-0.1900131 0.07298,-0.1050972 0.401764,0.2239947 0.26454,0.4862766 -0.259534,0.4960592 -0.275752,0.00515 -0.503274,-0.08151 -0.505603,-0.1925727 z m 2.919615,-0.059757 c 0.05027,-0.080239 -0.113767,-0.1791333 -0.36453,-0.2197647 -0.433409,-0.070226 -0.434882,-0.075541 -0.0298,-0.107603 0.234374,-0.01855 0.528379,0.077918 0.653344,0.2143735 0.171454,0.187218 0.156336,0.2494243 -0.0616,0.2534925 -0.158848,0.00297 -0.247684,-0.060259 -0.197412,-0.1404983 z"
       style="fill:#00adf0;fill-opacity:1" />
  </g>
</svg>
