<?xml version="1.0" encoding="UTF-8" standalone="no"?>
<svg
   xmlns:osb="http://www.openswatchbook.org/uri/2009/osb"
   xmlns:dc="http://purl.org/dc/elements/1.1/"
   xmlns:cc="http://creativecommons.org/ns#"
   xmlns:rdf="http://www.w3.org/1999/02/22-rdf-syntax-ns#"
   xmlns:svg="http://www.w3.org/2000/svg"
   xmlns="http://www.w3.org/2000/svg"
   xmlns:xlink="http://www.w3.org/1999/xlink"
   version="1.1"
   id="svg3346"
   viewBox="0 0 332.21087 339.47124"
   height="95.806328mm"
   width="93.757294mm">
  <defs
     id="defs3348">
    <linearGradient
       osb:paint="solid"
       id="linearGradient5589">
      <stop
         id="stop5591"
         offset="0"
         style="stop-color:#99def9;stop-opacity:1;" />
    </linearGradient>
    <linearGradient
       osb:paint="solid"
       id="linearGradient5767">
      <stop
         id="stop5769"
         offset="0"
         style="stop-color:#99def9;stop-opacity:1;" />
    </linearGradient>
    <linearGradient
       osb:paint="solid"
       id="linearGradient5741">
      <stop
         id="stop5743"
         offset="0"
         style="stop-color:#99def9;stop-opacity:1;" />
    </linearGradient>
    <linearGradient
       osb:paint="solid"
       id="linearGradient5723">
      <stop
         id="stop5725"
         offset="0"
         style="stop-color:#99def9;stop-opacity:1;" />
    </linearGradient>
    <linearGradient
       osb:paint="solid"
       id="linearGradient5686">
      <stop
         id="stop5688"
         offset="0"
         style="stop-color:#1d0000;stop-opacity:0;" />
    </linearGradient>
    <linearGradient
       gradientTransform="translate(-1028.5714,20)"
       gradientUnits="userSpaceOnUse"
       y2="611.56946"
       x2="-457.13596"
       y1="611.56946"
       x1="-787.11023"
       id="linearGradient5593"
       xlink:href="#linearGradient5686" />
  </defs>
  <metadata
     id="metadata3351">
    <rdf:RDF>
      <cc:Work
         rdf:about="">
        <dc:format>image/svg+xml</dc:format>
        <dc:type
           rdf:resource="http://purl.org/dc/dcmitype/StillImage" />
        <dc:title></dc:title>
      </cc:Work>
    </rdf:RDF>
  </metadata>
  <g
     transform="translate(-186.43262,-201.83399)"
     id="layer1">
    <g
       transform="translate(977.14285,-237.14286)"
       id="g5809">
      <path
         id="path5815"
         d="m -539.52099,741.24706 c 0,-21.41342 0.34875,-30.17346 0.77503,-19.46674 0.42626,10.70671 0.42626,28.22678 0,38.93349 -0.42628,10.70671 -0.77503,1.94668 -0.77503,-19.46675 z m -102.45163,-37.16379 c -2.86151,-3.74247 -2.78014,-3.82593 0.86857,-0.89089 2.21422,1.78115 4.02586,3.63934 4.02586,4.12931 0,1.94205 -1.88913,0.6921 -4.89443,-3.23842 z m -18.54184,-6.92098 c 1.66067,-0.68162 3.64484,-0.59781 4.40928,0.18617 0.76443,0.7841 -0.5943,1.34177 -3.0194,1.23931 -2.67994,-0.11326 -3.22506,-0.67234 -1.38988,-1.42558 z m -121.78821,-11.95586 c -2.86152,-3.74248 -2.78015,-3.82594 0.86856,-0.8909 2.21423,1.78115 4.02586,3.63934 4.02586,4.12931 0,1.94205 -1.88913,0.6921 -4.89442,-3.23841 z m 315.46094,3.23841 c 0,-0.48997 1.81163,-2.34816 4.02586,-4.12931 3.64872,-2.93504 3.73009,-2.85158 0.86857,0.8909 -3.00529,3.93051 -4.89443,5.18046 -4.89443,3.23841 z m 10.2596,-119.449 c 0,-57.75136 0.29945,-81.37691 0.66544,-52.50123 0.36598,28.87567 0.36598,76.12678 0,105.00246 -0.36599,28.87567 -0.66544,5.25012 -0.66544,-52.50123 z M -784.30972,454.84387 c 0,-0.48998 1.81163,-2.34817 4.02586,-4.12931 3.64871,-2.93504 3.73008,-2.85158 0.86856,0.89088 -3.00529,3.93051 -4.89442,5.18047 -4.89442,3.23843 z m 319.47503,-3.23843 c -2.86152,-3.74246 -2.78015,-3.82592 0.86857,-0.89088 3.83205,3.08252 5.05069,5.0202 3.15729,5.0202 -0.4777,0 -2.28933,-1.85819 -4.02586,-4.12932 z"
         style="fill:#e7e7e7" />
      <path
         id="path5813"
         d="m -787.85309,568.99584 c 0,-57.75136 0.29945,-81.37691 0.66545,-52.50123 0.366,28.87567 0.366,76.12678 0,105.00246 -0.366,28.87567 -0.66545,5.25012 -0.66545,-52.50123 z M -490.278,442.32485 c 1.66065,-0.68162 3.64483,-0.5978 4.40928,0.18628 0.76443,0.78408 -0.59431,1.34177 -3.01939,1.23931 -2.67996,-0.11322 -3.22506,-0.67235 -1.38989,-1.42559 z"
         style="fill:#d9d9d9" />
      <path
         id="path5811"
         d="m -1620.79,762.13734 c -26.5707,-21.51196 -51.6416,-40.59994 -55.7131,-42.41773 -5.5964,-2.49859 -19.6298,-3.30827 -57.5123,-3.31822 -54.7714,-0.0142 -64.672,-1.58264 -74.6586,-11.82581 l -6.5076,-6.67485 0,-108.90489 0,-108.90489 6.4723,-6.63864 c 11.2841,-11.57402 19.7195,-12.15575 165.2105,-11.39318 117.6767,0.61678 134.0991,1.14824 141.4586,4.57785 16.4756,7.67772 15.829,2.67962 15.829,122.35886 0,118.46637 0.551,113.83769 -14.5177,121.96389 -5.2686,2.84121 -15.1195,4.24409 -34.9429,4.9762 -15.1832,0.56076 -28.8999,2.08969 -30.4815,3.39762 -2.0953,1.73278 -2.8756,13.1843 -2.8756,42.20242 0,21.90342 -0.7764,39.79957 -1.7254,39.76923 -0.9489,-0.0304 -23.465,-17.65587 -50.0357,-39.16786 z"
         style="fill:#99def9;stroke:url(#linearGradient5593);stroke-opacity:1;fill-opacity:1" />
    </g>
  </g>
</svg>
