<?xml version="1.0" encoding="UTF-8" standalone="no"?>
<svg
   xmlns:osb="http://www.openswatchbook.org/uri/2009/osb"
   xmlns:dc="http://purl.org/dc/elements/1.1/"
   xmlns:cc="http://creativecommons.org/ns#"
   xmlns:rdf="http://www.w3.org/1999/02/22-rdf-syntax-ns#"
   xmlns:svg="http://www.w3.org/2000/svg"
   xmlns="http://www.w3.org/2000/svg"
   version="1.1"
   id="svg3346"
   viewBox="0 0 403.7245 403.65481"
   height="113.92036mm"
   width="113.94003mm">
  <defs
     id="defs3348">
    <linearGradient
       osb:paint="solid"
       id="linearGradient5767">
      <stop
         id="stop5769"
         offset="0"
         style="stop-color:#99def9;stop-opacity:1;" />
    </linearGradient>
    <linearGradient
       osb:paint="solid"
       id="linearGradient5741">
      <stop
         id="stop5743"
         offset="0"
         style="stop-color:#99def9;stop-opacity:0;" />
    </linearGradient>
    <linearGradient
       osb:paint="solid"
       id="linearGradient5723">
      <stop
         id="stop5725"
         offset="0"
         style="stop-color:#99def9;stop-opacity:1;" />
    </linearGradient>
    <linearGradient
       osb:paint="solid"
       id="linearGradient5686">
      <stop
         id="stop5688"
         offset="0"
         style="stop-color:#000000;stop-opacity:1;" />
    </linearGradient>
  </defs>
  <metadata
     id="metadata3351">
    <rdf:RDF>
      <cc:Work
         rdf:about="">
        <dc:format>image/svg+xml</dc:format>
        <dc:type
           rdf:resource="http://purl.org/dc/dcmitype/StillImage" />
        <dc:title></dc:title>
      </cc:Work>
    </rdf:RDF>
  </metadata>
  <g
     transform="translate(-166.44645,-176.13659)"
     id="layer1">
    <g
       style="fill:#99def9;fill-opacity:1"
       transform="translate(645.71428,42.857146)"
       id="g5790">
      <path
         id="path5796"
         d="m -292.25744,535.74821 c 2.49386,-0.6523 6.57472,-0.6523 9.06859,0 2.49386,0.65232 0.45343,1.18604 -4.5343,1.18604 -4.98772,0 -7.02816,-0.53372 -4.53429,-1.18604 z m 18.13718,0 c 2.49386,-0.6523 6.57472,-0.6523 9.06859,0 2.49386,0.65232 0.45343,1.18604 -4.5343,1.18604 -4.98772,0 -7.02816,-0.53372 -4.53429,-1.18604 z m -147.16262,-58.50899 -10.24219,-11.02198 11.01185,10.2516 c 10.24093,9.53389 12.20251,11.79235 10.24219,11.79235 -0.42331,0 -5.37865,-4.95989 -11.01185,-11.02197 z m 68.64461,-89.47254 -8.92911,-9.72527 9.71635,8.93731 c 5.34399,4.91552 9.71634,9.2919 9.71634,9.72529 0,1.98037 -2.19257,0.11488 -10.50358,-8.93732 z m 70.09717,-25.28571 c 7.7405,-7.84506 14.65661,-14.26374 15.36914,-14.26374 0.71253,0 -5.03762,6.41868 -12.77811,14.26374 -7.74049,7.84506 -14.6566,14.26374 -15.36914,14.26374 -0.71253,0 5.03762,-6.41868 12.77811,-14.26374 z M -76.978937,335.2502 c 0,-10.6978 0.457342,-15.07418 1.016356,-9.72528 0.558988,5.34891 0.558988,14.10165 0,19.45056 -0.559014,5.3489 -1.016356,0.97252 -1.016356,-9.72528 z m -300.134593,0 c 2.57933,-2.85275 5.27267,-5.18681 5.9852,-5.18681 0.71253,0 -0.81485,2.33406 -3.39418,5.18681 -2.57933,2.85275 -5.27267,5.18681 -5.9852,5.18681 -0.71254,0 0.81485,-2.33406 3.39418,-5.18681 z m 216.35064,-63.53846 c -6.29368,-6.41868 -10.86008,-11.67033 -10.14754,-11.67033 0.71253,0 6.44489,5.25165 12.73857,11.67033 6.29368,6.41868 10.86007,11.67033 10.14754,11.67033 -0.71253,0 -6.44489,-5.25165 -12.73857,-11.67033 z m 24.49284,-79.74726 -10.2422,-11.02198 11.01186,10.25161 c 6.05652,5.63837 11.01186,10.59827 11.01186,11.02197 0,1.96212 -2.25639,-0.001 -11.78152,-10.2516 z m -118.25558,-58.17819 c 1.8704,-0.74915 4.10516,-0.65702 4.96613,0.20475 0.86098,0.86176 -0.66935,1.47471 -3.40072,1.3621 -3.0184,-0.12444 -3.63236,-0.73896 -1.56541,-1.56685 z"
         style="fill:#99def9;fill-opacity:1" />
      <path
         id="path5794"
         d="m -150.39879,489.87543 c 0,-0.53852 2.04044,-2.58083 4.5343,-4.53846 4.10952,-3.22586 4.20117,-3.13413 0.97827,0.97917 -3.38484,4.31997 -5.51257,5.69377 -5.51257,3.55929 z m 20.72821,-20.74725 c 0,-0.53852 2.04043,-2.58083 4.5343,-4.53846 4.10952,-3.22586 4.20116,-3.13413 0.97826,0.97917 -3.38484,4.31996 -5.51256,5.69377 -5.51256,3.55929 z m -168.41667,-29.33345 c 2.1376,-0.75663 37.69942,-34.8002 79.02628,-75.65241 l 75.13975,-74.27674 -75.12298,75.85715 c -41.31766,41.72143 -76.87949,75.765 -79.0263,75.65239 -3.45774,-0.18135 -3.45965,-0.36175 -0.0168,-1.58039 z m -73.96615,-71.47859 -10.24219,-11.02198 11.01186,10.2516 c 6.05653,5.63838 11.01186,10.59827 11.01186,11.02198 0,1.96211 -2.25639,-0.001 -11.78153,-10.2516 z m -106.99654,-14.91209 c 0,-3.56594 0.58809,-5.02473 1.30688,-3.24176 0.71878,1.78297 0.71878,4.70055 0,6.48351 -0.71879,1.78297 -1.30688,0.32418 -1.30688,-3.24175 z m 254.80692,-49.27473 c 24.19466,-24.24835 44.57326,-44.08791 45.28579,-44.08791 0.71254,0 -18.5001,19.83956 -42.69476,44.08791 -24.19465,24.24835 -44.57325,44.08791 -45.28578,44.08791 -0.71254,0 18.5001,-19.83956 42.69475,-44.08791 z m -123.26982,23.98901 -6.28146,-7.13187 7.12532,6.28724 c 3.91892,3.45797 7.12532,6.66731 7.12532,7.13186 0,2.03395 -2.09821,0.37858 -7.96918,-6.28723 z m -23.12313,0.9659 c 0,-0.53853 2.04043,-2.58084 4.53429,-4.53846 4.10952,-3.22586 4.20116,-3.13413 0.97826,0.97915 -3.38484,4.31997 -5.51255,5.69377 -5.51255,3.55931 z m -108.61853,-13.5007 c 0.12433,-3.02117 0.73829,-3.63569 1.56542,-1.56685 0.74847,1.87212 0.65642,4.10893 -0.20456,4.9707 -0.86097,0.86177 -1.47336,-0.66997 -1.36086,-3.40385 z m 46.43391,-110.98282 c 0,-0.53853 2.04044,-2.58084 4.5343,-4.53846 4.10951,-3.22586 4.20115,-3.13413 0.97825,0.97915 -3.38483,4.31997 -5.51255,5.69377 -5.51255,3.55931 z m 18.13718,-18.15384 c 0,-0.53854 2.04044,-2.58085 4.5343,-4.53847 4.10951,-3.22586 4.20115,-3.13413 0.97825,0.97916 -3.38483,4.31996 -5.51255,5.69377 -5.51255,3.55931 z m 116.11034,-52.66058 c 1.8704,-0.74915 4.10516,-0.65702 4.96614,0.20475 0.86097,0.86176 -0.66935,1.47471 -3.40073,1.3621 -3.01839,-0.12444 -3.63235,-0.73896 -1.56541,-1.56685 z m 36.27436,0 c 1.8704,-0.74915 4.10516,-0.65702 4.96614,0.20475 0.86097,0.86176 -0.66935,1.47471 -3.40073,1.3621 -3.01839,-0.12444 -3.63235,-0.73896 -1.56541,-1.56685 z"
         style="fill:#99def9;fill-opacity:1" />
      <path
         id="path5792"
         d="M -320.45994,531.07012 C -436.88896,505.72584 -506.10797,383.1503 -467.74448,270.2533 c 39.11122,-115.09742 170.85729,-169.46856 278.83178,-115.0729 73.12237,36.83778 114.128906,107.07119 110.435347,189.14672 -4.116388,91.47101 -68.973367,167.76017 -158.720797,186.69813 -22.19477,4.68341 -61.85461,4.70478 -83.26179,0.0449 z M -219.7252,367.0362 c 40.97966,-40.99902 74.50847,-76.34163 74.50847,-78.53914 0,-2.19751 -6.27446,-10.19769 -13.94325,-17.77818 -11.67759,-11.54313 -14.72998,-13.34645 -18.78493,-11.09792 -2.66293,1.47662 -29.89971,27.85002 -60.52615,58.60756 -30.62645,30.75753 -57.59065,55.92278 -59.92045,55.92278 -2.3298,0 -15.91322,-12.25385 -30.18538,-27.23077 -14.27216,-14.97692 -27.31194,-27.23077 -28.97728,-27.23077 -3.67304,0 -31.21898,25.69296 -31.21898,29.11892 0,3.43159 88.35584,92.77119 91.74965,92.77119 1.53441,0 36.31865,-33.54465 77.2983,-74.54367 z"
         style="fill:#99def9;fill-opacity:1" />
    </g>
  </g>
</svg>
