<?xml version="1.0" encoding="UTF-8" standalone="no"?>
<svg
   xmlns:osb="http://www.openswatchbook.org/uri/2009/osb"
   xmlns:dc="http://purl.org/dc/elements/1.1/"
   xmlns:cc="http://creativecommons.org/ns#"
   xmlns:rdf="http://www.w3.org/1999/02/22-rdf-syntax-ns#"
   xmlns:svg="http://www.w3.org/2000/svg"
   xmlns="http://www.w3.org/2000/svg"
   version="1.1"
   id="svg3346"
   viewBox="0 0 332.21087 339.47124"
   height="95.806328mm"
   width="93.757294mm">
  <defs
     id="defs3348">
    <linearGradient
       osb:paint="solid"
       id="linearGradient5589">
      <stop
         id="stop5591"
         offset="0"
         style="stop-color:#99def9;stop-opacity:1;" />
    </linearGradient>
    <linearGradient
       osb:paint="solid"
       id="linearGradient5767">
      <stop
         id="stop5769"
         offset="0"
         style="stop-color:#99def9;stop-opacity:1;" />
    </linearGradient>
    <linearGradient
       osb:paint="solid"
       id="linearGradient5741">
      <stop
         id="stop5743"
         offset="0"
         style="stop-color:#99def9;stop-opacity:1;" />
    </linearGradient>
    <linearGradient
       osb:paint="solid"
       id="linearGradient5723">
      <stop
         id="stop5725"
         offset="0"
         style="stop-color:#99def9;stop-opacity:1;" />
    </linearGradient>
    <linearGradient
       osb:paint="solid"
       id="linearGradient5686">
      <stop
         id="stop5688"
         offset="0"
         style="stop-color:#1d0000;stop-opacity:0;" />
    </linearGradient>
  </defs>
  <metadata
     id="metadata3351">
    <rdf:RDF>
      <cc:Work
         rdf:about="">
        <dc:format>image/svg+xml</dc:format>
        <dc:type
           rdf:resource="http://purl.org/dc/dcmitype/StillImage" />
        <dc:title></dc:title>
      </cc:Work>
    </rdf:RDF>
  </metadata>
  <g
     transform="translate(-186.43262,-201.83399)"
     id="layer1">
    <g
       transform="translate(977.14285,-237.14286)"
       id="g5809">
      <path
         id="path5815"
         d="m -539.52099,741.24706 c 0,-21.41342 0.34875,-30.17346 0.77503,-19.46674 0.42626,10.70671 0.42626,28.22678 0,38.93349 -0.42628,10.70671 -0.77503,1.94668 -0.77503,-19.46675 z m -102.45163,-37.16379 c -2.86151,-3.74247 -2.78014,-3.82593 0.86857,-0.89089 2.21422,1.78115 4.02586,3.63934 4.02586,4.12931 0,1.94205 -1.88913,0.6921 -4.89443,-3.23842 z m -18.54184,-6.92098 c 1.66067,-0.68162 3.64484,-0.59781 4.40928,0.18617 0.76443,0.7841 -0.5943,1.34177 -3.0194,1.23931 -2.67994,-0.11326 -3.22506,-0.67234 -1.38988,-1.42558 z m -121.78821,-11.95586 c -2.86152,-3.74248 -2.78015,-3.82594 0.86856,-0.8909 2.21423,1.78115 4.02586,3.63934 4.02586,4.12931 0,1.94205 -1.88913,0.6921 -4.89442,-3.23841 z m 315.46094,3.23841 c 0,-0.48997 1.81163,-2.34816 4.02586,-4.12931 3.64872,-2.93504 3.73009,-2.85158 0.86857,0.8909 -3.00529,3.93051 -4.89443,5.18046 -4.89443,3.23841 z m 10.2596,-119.449 c 0,-57.75136 0.29945,-81.37691 0.66544,-52.50123 0.36598,28.87567 0.36598,76.12678 0,105.00246 -0.36599,28.87567 -0.66544,5.25012 -0.66544,-52.50123 z M -784.30972,454.84387 c 0,-0.48998 1.81163,-2.34817 4.02586,-4.12931 3.64871,-2.93504 3.73008,-2.85158 0.86856,0.89088 -3.00529,3.93051 -4.89442,5.18047 -4.89442,3.23843 z m 319.47503,-3.23843 c -2.86152,-3.74246 -2.78015,-3.82592 0.86857,-0.89088 3.83205,3.08252 5.05069,5.0202 3.15729,5.0202 -0.4777,0 -2.28933,-1.85819 -4.02586,-4.12932 z"
         style="fill:#e7e7e7" />
      <path
         id="path5813"
         d="m -787.85309,568.99584 c 0,-57.75136 0.29945,-81.37691 0.66545,-52.50123 0.366,28.87567 0.366,76.12678 0,105.00246 -0.366,28.87567 -0.66545,5.25012 -0.66545,-52.50123 z M -490.278,442.32485 c 1.66065,-0.68162 3.64483,-0.5978 4.40928,0.18628 0.76443,0.78408 -0.59431,1.34177 -3.01939,1.23931 -2.67996,-0.11322 -3.22506,-0.67235 -1.38989,-1.42559 z"
         style="fill:#d9d9d9" />
      <path
         id="path5811"
         d="m -592.08545,740.28234 c -25.41963,-20.97097 -49.40444,-39.57892 -53.29956,-41.35099 -5.35396,-2.43576 -18.77942,-3.22508 -55.02082,-3.23478 -52.39865,-0.0138 -61.87035,-1.54284 -71.42432,-11.52841 l -6.22569,-6.50699 0,-106.16611 0,-106.16611 6.19192,-6.47169 c 10.79526,-11.28295 18.86523,-11.85005 158.05344,-11.10666 112.57881,0.60127 128.28977,1.11936 135.33045,4.46272 15.76187,7.48464 15.14328,2.61224 15.14328,119.28174 0,115.48714 0.52713,110.97486 -13.88878,118.8967 -5.04036,2.76976 -14.46451,4.13736 -33.42915,4.85106 -14.52545,0.54666 -27.64793,2.03714 -29.16101,3.31217 -2.00453,1.68921 -2.75103,12.85274 -2.75103,41.1411 0,21.35259 -0.74277,38.79868 -1.65065,38.7691 -0.9078,-0.0296 -22.44844,-17.21185 -47.86808,-38.18285 z"
         style="fill:#99def9;fill-opacity:1;stroke:none;stroke-width:0.96572268;stroke-opacity:1" />
    </g>
  </g>
</svg>
