<?xml version="1.0" encoding="UTF-8" standalone="no"?>
<!-- Created with Inkscape (http://www.inkscape.org/) -->

<svg
   xmlns:osb="http://www.openswatchbook.org/uri/2009/osb"
   xmlns:dc="http://purl.org/dc/elements/1.1/"
   xmlns:cc="http://creativecommons.org/ns#"
   xmlns:rdf="http://www.w3.org/1999/02/22-rdf-syntax-ns#"
   xmlns:svg="http://www.w3.org/2000/svg"
   xmlns="http://www.w3.org/2000/svg"
   xmlns:xlink="http://www.w3.org/1999/xlink"
   xmlns:sodipodi="http://sodipodi.sourceforge.net/DTD/sodipodi-0.dtd"
   xmlns:inkscape="http://www.inkscape.org/namespaces/inkscape"
   width="138.00323mm"
   height="120.29587mm"
   viewBox="0 0 488.98784 426.2452"
   id="svg3346"
   version="1.1"
   inkscape:version="0.91 r13725"
   sodipodi:docname="section-1.svg">
  <defs
     id="defs3348">
    <linearGradient
       id="linearGradient5767"
       osb:paint="solid">
      <stop
         style="stop-color:#99def9;stop-opacity:1;"
         offset="0"
         id="stop5769" />
    </linearGradient>
    <linearGradient
       id="linearGradient5741"
       osb:paint="solid">
      <stop
         style="stop-color:#99def9;stop-opacity:0;"
         offset="0"
         id="stop5743" />
    </linearGradient>
    <linearGradient
       id="linearGradient5723"
       osb:paint="solid">
      <stop
         style="stop-color:#99def9;stop-opacity:1;"
         offset="0"
         id="stop5725" />
    </linearGradient>
    <linearGradient
       id="linearGradient5686"
       osb:paint="solid">
      <stop
         style="stop-color:#000000;stop-opacity:1;"
         offset="0"
         id="stop5688" />
    </linearGradient>
    <linearGradient
       inkscape:collect="always"
       xlink:href="#linearGradient5767"
       id="linearGradient5771"
       x1="275.68381"
       y1="523.55627"
       x2="416.10022"
       y2="523.55627"
       gradientUnits="userSpaceOnUse" />
    <linearGradient
       inkscape:collect="always"
       xlink:href="#linearGradient5767"
       id="linearGradient5773"
       gradientUnits="userSpaceOnUse"
       x1="275.68381"
       y1="523.55627"
       x2="416.10022"
       y2="523.55627" />
    <linearGradient
       inkscape:collect="always"
       xlink:href="#linearGradient5767"
       id="linearGradient5775"
       gradientUnits="userSpaceOnUse"
       x1="275.68381"
       y1="523.55627"
       x2="416.10022"
       y2="523.55627" />
    <linearGradient
       inkscape:collect="always"
       xlink:href="#linearGradient5767"
       id="linearGradient5777"
       gradientUnits="userSpaceOnUse"
       x1="275.68381"
       y1="523.55627"
       x2="416.10022"
       y2="523.55627" />
  </defs>
  <sodipodi:namedview
     id="base"
     pagecolor="#ffffff"
     bordercolor="#666666"
     borderopacity="1.0"
     inkscape:pageopacity="0.0"
     inkscape:pageshadow="2"
     inkscape:zoom="0.35"
     inkscape:cx="-332.11241"
     inkscape:cy="49.186008"
     inkscape:document-units="px"
     inkscape:current-layer="layer1"
     showgrid="false"
     inkscape:window-width="1600"
     inkscape:window-height="837"
     inkscape:window-x="-8"
     inkscape:window-y="-8"
     inkscape:window-maximized="1"
     fit-margin-top="0"
     fit-margin-left="0"
     fit-margin-right="0"
     fit-margin-bottom="0" />
  <metadata
     id="metadata3351">
    <rdf:RDF>
      <cc:Work
         rdf:about="">
        <dc:format>image/svg+xml</dc:format>
        <dc:type
           rdf:resource="http://purl.org/dc/dcmitype/StillImage" />
        <dc:title></dc:title>
      </cc:Work>
    </rdf:RDF>
  </metadata>
  <g
     inkscape:label="Layer 1"
     inkscape:groupmode="layer"
     id="layer1"
     transform="translate(-124.25526,-156.14788)">
    <g
       id="g5703"
       transform="matrix(3.4824124,0,0,3.0331063,-835.78949,-1218.7313)"
       style="fill:url(#linearGradient5771);fill-opacity:1">
      <path
         style="fill:url(#linearGradient5773);fill-opacity:1"
         d="m 315.46426,593.54138 c 16.3625,-0.15419 43.1375,-0.15419 59.5,0 16.3625,0.15418 2.975,0.28033 -29.75,0.28033 -32.725,0 -46.1125,-0.12615 -29.75,-0.28033 z M 415.66681,546.7908 c 3.1e-4,-20.35 0.13365,-28.53307 0.29631,-18.1846 0.16266,10.34848 0.16241,26.99848 -5.6e-4,37 -0.16297,10.00153 -0.29606,1.5346 -0.29575,-18.8154 z m -120.98783,-23.5 c 0,-28.325 0.12803,-39.9125 0.28452,-25.75 0.15649,14.1625 0.15649,37.3375 0,51.5 -0.15649,14.1625 -0.28452,2.575 -0.28452,-25.75 z m 24.99125,38.25125 c 10.47122,-0.25384 13.34799,-0.64368 15,-2.03266 2.03594,-1.71179 2.03649,-1.70969 0.13904,0.53141 -1.81599,2.14488 -2.51677,2.23985 -15,2.03267 l -13.09501,-0.21733 12.95597,-0.31409 z m 22.66563,-10.50125 c 0.25022,-0.1375 13.26272,-12.85 28.91667,-28.25 l 28.46173,-28 -27.9933,28.25 c -15.39632,15.5375 -28.40882,28.25 -28.91667,28.25 -0.50785,0 -0.71864,-0.1125 -0.46843,-0.25 z m -11.19729,-14.5 -2.42431,-2.75 2.75,2.42431 c 1.5125,1.33338 2.75,2.57088 2.75,2.75 0,0.78428 -0.8098,0.14598 -3.07569,-2.42431 z m -23.92431,-0.62756 c 0,-0.20765 0.7875,-0.99515 1.75,-1.75 1.58606,-1.24387 1.62143,-1.2085 0.37755,0.37756 -1.30636,1.66575 -2.12755,2.19548 -2.12755,1.37244 z m 10.62824,-9.32753 c -0.64145,-0.64146 55.13269,-57.29491 56.40565,-57.29491 0.30087,0 -12.16112,12.67946 -27.69331,28.17658 -15.53219,15.49712 -28.01134,28.54712 -27.73145,29 0.62272,1.00758 -0.0147,1.08448 -0.98089,0.11833 z m 93.02944,-43.29491 c 2.28672,-2.475 4.37202,-5.4 4.634,-6.5 0.46792,-1.96476 0.47836,-1.96402 0.59232,0.0418 0.0704,1.23883 -1.752,3.79504 -4.634,6.5 l -4.75,4.45821 4.15768,-4.5 z m -25.78524,-6.75 c -1.24387,-1.58606 -1.2085,-1.62143 0.37756,-0.37756 1.66575,1.30637 2.19548,2.12756 1.37244,2.12756 -0.20765,0 -0.99515,-0.7875 -1.75,-1.75 z m -36.87244,-13.75 c 5.20328,-5.225 9.6855,-9.5 9.9605,-9.5 0.275,0 -3.75722,4.275 -8.9605,9.5 -5.20328,5.225 -9.6855,9.5 -9.9605,9.5 -0.275,0 3.75722,-4.275 8.9605,-9.5 z m 36.95821,-4.75 c 2.45201,-2.6125 4.58951,-4.75 4.75,-4.75 0.75088,0 -0.043,0.89783 -4.45821,5.04179 l -4.75,4.45821 4.45821,-4.75 z"
         id="path5709"
         inkscape:connector-curvature="0" />
      <path
         style="fill:url(#linearGradient5775);fill-opacity:1"
         d="m 275.68382,523.2908 c 0,-33.275 0.12594,-46.8875 0.27988,-30.25 0.15394,16.6375 0.15394,43.8625 0,60.5 -0.15394,16.6375 -0.27988,3.025 -0.27988,-30.25 z m 69.76133,51.25455 50.7309,-0.27269 0.29847,-21.99152 0.29847,-21.99152 -0.0294,22.25059 -0.0293,22.25059 -51,0.0136 -51,0.0136 50.73089,-0.27269 z M 321.08671,540.5408 c -1.24388,-1.58606 -1.20851,-1.62143 0.37755,-0.37756 0.9625,0.75485 1.75,1.54235 1.75,1.75 0,0.82304 -0.82119,0.29331 -2.12755,-1.37244 z m 14,0 c -1.24388,-1.58606 -1.20851,-1.62143 0.37755,-0.37756 0.9625,0.75485 1.75,1.54235 1.75,1.75 0,0.82304 -0.82119,0.29331 -2.12755,-1.37244 z m -8,-8 c -1.24388,-1.58606 -1.20851,-1.62143 0.37755,-0.37756 0.9625,0.75485 1.75,1.54235 1.75,1.75 0,0.82304 -0.82119,0.29331 -2.12755,-1.37244 z m 78.62755,-12.25 c 4.92707,-4.95 9.1833,-9 9.4583,-9 0.275,0 -3.53123,4.05 -8.4583,9 -4.92707,4.95 -9.1833,9 -9.4583,9 -0.275,0 3.53123,-4.05 8.4583,-9 z m -17.09501,-40.25 -1.90499,-2.25 2.25,1.90499 c 2.11444,1.79022 2.70524,2.59501 1.90499,2.59501 -0.18976,0 -1.20226,-1.0125 -2.25,-2.25 z m 7,-7 -1.90499,-2.25 2.25,1.90499 c 2.11444,1.79022 2.70524,2.59501 1.90499,2.59501 -0.18976,0 -1.20226,-1.0125 -2.25,-2.25 z m -2.59249,-19.43311 c 0.72187,-0.28887 1.58437,-0.25335 1.91667,0.0789 0.33229,0.3323 -0.25834,0.56864 -1.3125,0.52522 -1.16495,-0.048 -1.4019,-0.28494 -0.60417,-0.60416 z"
         id="path5707"
         inkscape:connector-curvature="0" />
      <path
         style="fill:url(#linearGradient5777);fill-opacity:1"
         d="m 282.41235,591.61799 c -6.39307,-3.15069 -6.19809,-0.99134 -6.19809,-68.64267 l 0,-61.4148 2.1679,-2.75604 c 4.18299,-5.31782 5.74709,-5.51368 44.03023,-5.51368 l 35.26237,0 -9.4605,9.5 -9.4605,9.5 -22.26975,0 -22.26975,0 0,51.50908 0,51.50908 51.25,-0.25908 51.25,-0.25908 0.26823,-22.539 0.26824,-22.539 8.98176,-8.94015 8.98177,-8.94015 -0.0147,35.97915 c -0.0161,39.31779 -0.004,39.22719 -5.89771,43.19913 l -3.38336,2.28002 -60.10211,-0.0228 c -53.4641,-0.0203 -60.4668,-0.2025 -63.40403,-1.65004 z m 24.80191,-42.70475 c 0,-15.19226 0.69597,-16.34129 7.66011,-12.64682 5.71134,3.02985 14.15363,11.32447 17.72,17.41002 4.14238,7.06844 3.24599,7.61436 -12.50256,7.61436 l -12.87755,0 0,-12.37756 z m 33.73704,-1.49045 c -2.84479,-4.81584 -10.92734,-13.26689 -16.89352,-17.66373 l -5.65648,-4.1686 27.89614,-27.8828 27.89615,-27.8828 3.74336,1.98297 c 5.17248,2.74001 16.56693,14.12714 19.07064,19.05838 l 2.06918,4.07541 -27.68784,27.67459 c -15.2283,15.22102 -27.92535,27.67459 -28.21564,27.67459 -0.2903,0 -1.29019,-1.2906 -2.22199,-2.86801 z m 62.94707,-65.03315 c -3.28798,-4.96847 -11.25817,-12.95054 -17.17179,-17.19738 l -4.59069,-3.29678 4.28919,-4.2378 4.28918,-4.23781 5.5,1.00914 c 11.31961,2.07691 16.81557,7.78066 18.53307,19.23373 0.68957,4.59841 0.56715,4.9411 -3.11057,8.70743 -2.10562,2.15635 -4.12727,3.92063 -4.49256,3.92063 -0.36529,0 -1.82592,-1.75552 -3.24583,-3.90116 z"
         id="path5705"
         inkscape:connector-curvature="0" />
    </g>
  </g>
</svg>
